# xmcd
#
# Track frame offsets: 
#        150
#        21950
#        35395
#        53647
#        73496
#        88495
#        101298
#        120813
#        136269
#
# Disc length: 2105 seconds
#
# Revision: 0
# Processed by: cddbd v1.5.2PL0 Copyright (c) Steve Scherf et al.
# Submitted via: ExactAudioCopy v1.3
#
DISCID=74083709
DTITLE=The Austin Blues Blues Revue - An Austin Blues Christmas
DYEAR=2018
DGENRE=Blues
TTITLE0=Silent Night
TTITLE1=Christmas Tears
TTITLE2=Santa Claus Wants Some Lovin'
TTITLE3=White Christmas
TTITLE4=Christmas Celebration
TTITLE5=Santa's Blues
TTITLE6=Back Door Santa
TTITLE7=Please Come Home For Christmas
TTITLE8=Silent Night
EXTD=
EXTT0=
EXTT1=
EXTT2=
EXTT3=
EXTT4=
EXTT5=
EXTT6=
EXTT7=
EXTT8=
PLAYORDER=
